# xmcd
#
# Track frame offsets:
#	150
#	13427
#	24344
#	40474
#	53747
#	69206
#	78463
#	91820
#	104188
#	118238
#	136927
#	151370
#	169629
#	189400
#	207993
#	220066
#
# Disc length: 3159 seconds
# Revision: 0
# Processed by: cddbd v1.5.2PL0 Copyright (c) Steve Scherf et al.
# Submitted via: dBpowerAMP V12.0
#
DISCID=dd0c5510
DTITLE=Stoats - Star Spangled Bangers
DYEAR=2019
DGENRE=
TTITLE0=Tugboat Captain
TTITLE1=Clothes Shopping
TTITLE2=Folsom Prison Blues
TTITLE3=Whole Again
TTITLE4=Steve's Last Ramble
TTITLE5=Hotel Yorba
TTITLE6=Wrong 'Em Boyo
TTITLE7=I'd Rather Go To Hell
TTITLE8=Thinkin' About Drinkin'
TTITLE9=Fisherman's Blues
TTITLE10=Never Make It Home
TTITLE11=I Don't Feel Like Dancing
TTITLE12=I Gotta Feeling
TTITLE13=Those Were The Days
TTITLE14=I Saw The Light
TTITLE15=Vincent Black Lightning
EXTD=
EXTT0=
EXTT1=
EXTT2=
EXTT3=
EXTT4=
EXTT5=
EXTT6=
EXTT7=
EXTT8=
EXTT9=
EXTT10=
EXTT11=
EXTT12=
EXTT13=
EXTT14=
EXTT15=
PLAYORDER=
